{
	"patcher" : 	{
		"fileversion" : 1,
		"appversion" : 		{
			"major" : 8,
			"minor" : 5,
			"revision" : 1,
			"architecture" : "x64",
			"modernui" : 1
		}
,
		"classnamespace" : "box",
		"rect" : [ 59.0, 81.0, 807.0, 715.0 ],
		"bglocked" : 0,
		"openinpresentation" : 0,
		"default_fontsize" : 12.0,
		"default_fontface" : 0,
		"default_fontname" : "Arial",
		"gridonopen" : 1,
		"gridsize" : [ 15.0, 15.0 ],
		"gridsnaponopen" : 1,
		"objectsnaponopen" : 1,
		"statusbarvisible" : 2,
		"toolbarvisible" : 1,
		"lefttoolbarpinned" : 0,
		"toptoolbarpinned" : 0,
		"righttoolbarpinned" : 0,
		"bottomtoolbarpinned" : 0,
		"toolbars_unpinned_last_save" : 0,
		"tallnewobj" : 0,
		"boxanimatetime" : 200,
		"enablehscroll" : 1,
		"enablevscroll" : 1,
		"devicewidth" : 0.0,
		"description" : "",
		"digest" : "",
		"tags" : "",
		"style" : "",
		"subpatcher_template" : "",
		"assistshowspatchername" : 0,
		"boxes" : [ 			{
				"box" : 				{
					"id" : "obj-2",
					"maxclass" : "newobj",
					"numinlets" : 3,
					"numoutlets" : 1,
					"outlettype" : [ "signal" ],
					"patching_rect" : [ 311.0, 93.0, 82.0, 22.0 ],
					"text" : "rampsmooth~"
				}

			}
, 			{
				"box" : 				{
					"id" : "obj-1",
					"maxclass" : "newobj",
					"numinlets" : 2,
					"numoutlets" : 1,
					"outlettype" : [ "signal" ],
					"patching_rect" : [ 321.0, 248.0, 40.0, 22.0 ],
					"text" : "*~ 0.5"
				}

			}
, 			{
				"box" : 				{
					"id" : "obj-16",
					"maxclass" : "newobj",
					"numinlets" : 1,
					"numoutlets" : 1,
					"outlettype" : [ "" ],
					"patching_rect" : [ 457.0, 205.0, 100.0, 22.0 ]
				}

			}
, 			{
				"box" : 				{
					"id" : "obj-15",
					"maxclass" : "newobj",
					"numinlets" : 3,
					"numoutlets" : 1,
					"outlettype" : [ "" ],
					"patching_rect" : [ 368.0, 129.0, 53.0, 22.0 ],
					"text" : "clip 0. 1."
				}

			}
, 			{
				"box" : 				{
					"id" : "obj-11",
					"maxclass" : "meter~",
					"numinlets" : 1,
					"numoutlets" : 1,
					"outlettype" : [ "float" ],
					"patching_rect" : [ 146.0, 239.0, 80.0, 13.0 ]
				}

			}
, 			{
				"box" : 				{
					"id" : "obj-10",
					"maxclass" : "newobj",
					"numinlets" : 1,
					"numoutlets" : 2,
					"outlettype" : [ "signal", "signal" ],
					"patching_rect" : [ 273.0, 71.0, 35.0, 22.0 ],
					"text" : "adc~"
				}

			}
, 			{
				"box" : 				{
					"id" : "obj-9",
					"maxclass" : "newobj",
					"numinlets" : 2,
					"numoutlets" : 1,
					"outlettype" : [ "signal" ],
					"patching_rect" : [ 283.0, 401.0, 40.0, 22.0 ],
					"text" : "*~ 0.7"
				}

			}
, 			{
				"box" : 				{
					"id" : "obj-7",
					"maxclass" : "newobj",
					"numinlets" : 2,
					"numoutlets" : 1,
					"outlettype" : [ "float" ],
					"patching_rect" : [ 405.0, 88.0, 82.0, 22.0 ],
					"text" : "peakamp~ 25"
				}

			}
, 			{
				"box" : 				{
					"id" : "obj-4",
					"maxclass" : "newobj",
					"numinlets" : 4,
					"numoutlets" : 1,
					"outlettype" : [ "signal" ],
					"patching_rect" : [ 340.5, 332.0, 89.0, 22.0 ],
					"text" : "reson~ 1 440 1"
				}

			}
, 			{
				"box" : 				{
					"id" : "obj-3",
					"maxclass" : "newobj",
					"numinlets" : 4,
					"numoutlets" : 0,
					"patching_rect" : [ 296.0, 502.0, 75.0, 22.0 ],
					"text" : "dac~ 1 2 3 4"
				}

			}
, 			{
				"box" : 				{
					"id" : "obj-6",
					"maxclass" : "newobj",
					"numinlets" : 1,
					"numoutlets" : 1,
					"outlettype" : [ "" ],
					"patching_rect" : [ 990.0, 113.0, 70.0, 22.0 ],
					"text" : "loadmess 1"
				}

			}
, 			{
				"box" : 				{
					"id" : "obj-12",
					"maxclass" : "newobj",
					"numinlets" : 6,
					"numoutlets" : 1,
					"outlettype" : [ "" ],
					"patching_rect" : [ 367.0, 183.0, 110.0, 22.0 ],
					"text" : "scale 0. 1. 3000 40"
				}

			}
, 			{
				"box" : 				{
					"id" : "obj-5",
					"maxclass" : "newobj",
					"numinlets" : 6,
					"numoutlets" : 1,
					"outlettype" : [ "signal" ],
					"patching_rect" : [ 570.0, 168.0, 71.5, 22.0 ],
					"text" : "biquad~"
				}

			}
, 			{
				"box" : 				{
					"id" : "obj-43",
					"maxclass" : "newobj",
					"numinlets" : 3,
					"numoutlets" : 2,
					"outlettype" : [ "", "" ],
					"patcher" : 					{
						"fileversion" : 1,
						"appversion" : 						{
							"major" : 8,
							"minor" : 5,
							"revision" : 1,
							"architecture" : "x64",
							"modernui" : 1
						}
,
						"classnamespace" : "box",
						"rect" : [ 107.0, 81.0, 867.0, 823.0 ],
						"bglocked" : 0,
						"openinpresentation" : 0,
						"default_fontsize" : 12.0,
						"default_fontface" : 0,
						"default_fontname" : "Arial",
						"gridonopen" : 1,
						"gridsize" : [ 15.0, 15.0 ],
						"gridsnaponopen" : 1,
						"objectsnaponopen" : 1,
						"statusbarvisible" : 2,
						"toolbarvisible" : 1,
						"lefttoolbarpinned" : 0,
						"toptoolbarpinned" : 0,
						"righttoolbarpinned" : 0,
						"bottomtoolbarpinned" : 0,
						"toolbars_unpinned_last_save" : 0,
						"tallnewobj" : 0,
						"boxanimatetime" : 200,
						"enablehscroll" : 1,
						"enablevscroll" : 1,
						"devicewidth" : 0.0,
						"description" : "",
						"digest" : "",
						"tags" : "",
						"style" : "",
						"subpatcher_template" : "",
						"assistshowspatchername" : 0,
						"boxes" : [ 							{
								"box" : 								{
									"hidden" : 1,
									"id" : "obj-2",
									"maxclass" : "newobj",
									"numinlets" : 1,
									"numoutlets" : 1,
									"outlettype" : [ "" ],
									"patching_rect" : [ 10.0, 125.0, 74.0, 22.0 ],
									"text" : "loadmess 1."
								}

							}
, 							{
								"box" : 								{
									"id" : "obj-1",
									"maxclass" : "newobj",
									"numinlets" : 1,
									"numoutlets" : 2,
									"outlettype" : [ "bang", "float" ],
									"patching_rect" : [ 150.0, 120.0, 29.5, 22.0 ],
									"text" : "t b f"
								}

							}
, 							{
								"box" : 								{
									"comment" : "",
									"id" : "obj-23",
									"index" : 2,
									"maxclass" : "outlet",
									"numinlets" : 1,
									"numoutlets" : 0,
									"patching_rect" : [ 800.0, 245.0, 30.0, 30.0 ]
								}

							}
, 							{
								"box" : 								{
									"id" : "obj-19",
									"maxclass" : "newobj",
									"numinlets" : 3,
									"numoutlets" : 1,
									"outlettype" : [ "float" ],
									"patching_rect" : [ 385.0, 315.0, 288.0, 22.0 ],
									"text" : "gen @expr out1 = -(2.0 * in1 * cos(in2 * TWOPI/in3))"
								}

							}
, 							{
								"box" : 								{
									"comment" : "",
									"id" : "obj-13",
									"index" : 1,
									"maxclass" : "outlet",
									"numinlets" : 1,
									"numoutlets" : 0,
									"patching_rect" : [ 95.0, 755.0, 30.0, 30.0 ]
								}

							}
, 							{
								"box" : 								{
									"id" : "obj-12",
									"maxclass" : "newobj",
									"numinlets" : 1,
									"numoutlets" : 1,
									"outlettype" : [ "bang" ],
									"patching_rect" : [ 300.0, 250.0, 25.0, 22.0 ],
									"text" : "b 1"
								}

							}
, 							{
								"box" : 								{
									"id" : "obj-9",
									"maxclass" : "newobj",
									"numinlets" : 1,
									"numoutlets" : 4,
									"outlettype" : [ "int", "float", "int", "int" ],
									"patching_rect" : [ 300.0, 275.0, 61.0, 22.0 ],
									"text" : "dspstate~"
								}

							}
, 							{
								"box" : 								{
									"id" : "obj-27",
									"maxclass" : "newobj",
									"numinlets" : 2,
									"numoutlets" : 1,
									"outlettype" : [ "float" ],
									"patching_rect" : [ 85.0, 315.0, 248.0, 22.0 ],
									"text" : "gen @expr out1 = exp(-((TWOPI/in2) * in1))"
								}

							}
, 							{
								"box" : 								{
									"comment" : "",
									"id" : "obj-18",
									"index" : 3,
									"maxclass" : "inlet",
									"numinlets" : 0,
									"numoutlets" : 1,
									"outlettype" : [ "" ],
									"patching_rect" : [ 150.0, 50.0, 30.0, 30.0 ]
								}

							}
, 							{
								"box" : 								{
									"id" : "obj-16",
									"maxclass" : "newobj",
									"numinlets" : 2,
									"numoutlets" : 1,
									"outlettype" : [ "float" ],
									"patching_rect" : [ 95.0, 690.0, 32.0, 22.0 ],
									"text" : "* -1."
								}

							}
, 							{
								"box" : 								{
									"id" : "obj-100",
									"maxclass" : "newobj",
									"numinlets" : 1,
									"numoutlets" : 2,
									"outlettype" : [ "bang", "float" ],
									"patching_rect" : [ 145.0, 595.0, 29.5, 22.0 ],
									"text" : "t b f"
								}

							}
, 							{
								"box" : 								{
									"id" : "obj-98",
									"maxclass" : "newobj",
									"numinlets" : 2,
									"numoutlets" : 1,
									"outlettype" : [ "float" ],
									"patching_rect" : [ 145.0, 645.0, 29.5, 22.0 ],
									"text" : "* 1."
								}

							}
, 							{
								"box" : 								{
									"id" : "obj-95",
									"maxclass" : "newobj",
									"numinlets" : 1,
									"numoutlets" : 2,
									"outlettype" : [ "bang", "float" ],
									"patching_rect" : [ 145.0, 495.0, 29.5, 22.0 ],
									"text" : "t b f"
								}

							}
, 							{
								"box" : 								{
									"format" : 6,
									"id" : "obj-92",
									"maxclass" : "flonum",
									"numinlets" : 1,
									"numoutlets" : 2,
									"outlettype" : [ "", "bang" ],
									"parameter_enable" : 0,
									"patching_rect" : [ 145.0, 565.0, 50.0, 22.0 ]
								}

							}
, 							{
								"box" : 								{
									"id" : "obj-90",
									"maxclass" : "newobj",
									"numinlets" : 2,
									"numoutlets" : 1,
									"outlettype" : [ "float" ],
									"patching_rect" : [ 145.0, 535.0, 29.5, 22.0 ],
									"text" : "* 0."
								}

							}
, 							{
								"box" : 								{
									"comment" : "",
									"id" : "obj-87",
									"index" : 2,
									"maxclass" : "inlet",
									"numinlets" : 0,
									"numoutlets" : 1,
									"outlettype" : [ "" ],
									"patching_rect" : [ 85.0, 50.0, 30.0, 30.0 ]
								}

							}
, 							{
								"box" : 								{
									"comment" : "",
									"id" : "obj-86",
									"index" : 1,
									"maxclass" : "inlet",
									"numinlets" : 0,
									"numoutlets" : 1,
									"outlettype" : [ "" ],
									"patching_rect" : [ 25.0, 50.0, 30.0, 30.0 ]
								}

							}
, 							{
								"box" : 								{
									"id" : "obj-68",
									"maxclass" : "newobj",
									"numinlets" : 5,
									"numoutlets" : 1,
									"outlettype" : [ "" ],
									"patching_rect" : [ 95.0, 725.0, 285.0, 22.0 ],
									"text" : "join 5 @triggers -1"
								}

							}
, 							{
								"box" : 								{
									"format" : 6,
									"id" : "obj-66",
									"maxclass" : "flonum",
									"numinlets" : 1,
									"numoutlets" : 2,
									"outlettype" : [ "", "bang" ],
									"parameter_enable" : 0,
									"patching_rect" : [ 85.0, 425.0, 50.0, 22.0 ]
								}

							}
, 							{
								"box" : 								{
									"id" : "obj-67",
									"maxclass" : "newobj",
									"numinlets" : 2,
									"numoutlets" : 1,
									"outlettype" : [ "float" ],
									"patching_rect" : [ 85.0, 395.0, 32.0, 22.0 ],
									"text" : "* -1."
								}

							}
, 							{
								"box" : 								{
									"id" : "obj-64",
									"maxclass" : "comment",
									"numinlets" : 1,
									"numoutlets" : 0,
									"patching_rect" : [ 235.0, 425.0, 29.0, 20.0 ],
									"text" : "c_2"
								}

							}
, 							{
								"box" : 								{
									"format" : 6,
									"id" : "obj-65",
									"maxclass" : "flonum",
									"numinlets" : 1,
									"numoutlets" : 2,
									"outlettype" : [ "", "bang" ],
									"parameter_enable" : 0,
									"patching_rect" : [ 180.0, 425.0, 50.0, 22.0 ]
								}

							}
, 							{
								"box" : 								{
									"id" : "obj-62",
									"maxclass" : "newobj",
									"numinlets" : 2,
									"numoutlets" : 1,
									"outlettype" : [ "float" ],
									"patching_rect" : [ 180.0, 395.0, 29.5, 22.0 ],
									"text" : "* 1."
								}

							}
, 							{
								"box" : 								{
									"id" : "obj-60",
									"maxclass" : "comment",
									"numinlets" : 1,
									"numoutlets" : 0,
									"patching_rect" : [ 440.0, 345.0, 29.0, 20.0 ],
									"text" : "c_1"
								}

							}
, 							{
								"box" : 								{
									"format" : 6,
									"id" : "obj-61",
									"maxclass" : "flonum",
									"numinlets" : 1,
									"numoutlets" : 2,
									"outlettype" : [ "", "bang" ],
									"parameter_enable" : 0,
									"patching_rect" : [ 385.0, 345.0, 50.0, 22.0 ]
								}

							}
, 							{
								"box" : 								{
									"id" : "obj-57",
									"maxclass" : "comment",
									"numinlets" : 1,
									"numoutlets" : 0,
									"patching_rect" : [ 140.0, 345.0, 24.0, 20.0 ],
									"text" : "r"
								}

							}
, 							{
								"box" : 								{
									"format" : 6,
									"id" : "obj-58",
									"maxclass" : "flonum",
									"numinlets" : 1,
									"numoutlets" : 2,
									"outlettype" : [ "", "bang" ],
									"parameter_enable" : 0,
									"patching_rect" : [ 85.0, 345.0, 50.0, 22.0 ]
								}

							}
, 							{
								"box" : 								{
									"id" : "obj-54",
									"maxclass" : "comment",
									"numinlets" : 1,
									"numoutlets" : 0,
									"patching_rect" : [ 140.0, 190.0, 24.0, 20.0 ],
									"text" : "bw"
								}

							}
, 							{
								"box" : 								{
									"format" : 6,
									"id" : "obj-52",
									"maxclass" : "flonum",
									"numinlets" : 1,
									"numoutlets" : 2,
									"outlettype" : [ "", "bang" ],
									"parameter_enable" : 0,
									"patching_rect" : [ 85.0, 190.0, 50.0, 22.0 ]
								}

							}
, 							{
								"box" : 								{
									"id" : "obj-51",
									"maxclass" : "newobj",
									"numinlets" : 2,
									"numoutlets" : 1,
									"outlettype" : [ "float" ],
									"patching_rect" : [ 85.0, 160.0, 29.5, 22.0 ],
									"text" : "/ 1."
								}

							}
, 							{
								"box" : 								{
									"id" : "obj-47",
									"maxclass" : "comment",
									"numinlets" : 1,
									"numoutlets" : 0,
									"patching_rect" : [ 150.0, 25.0, 30.0, 20.0 ],
									"text" : "q"
								}

							}
, 							{
								"box" : 								{
									"format" : 6,
									"id" : "obj-48",
									"maxclass" : "flonum",
									"numinlets" : 1,
									"numoutlets" : 2,
									"outlettype" : [ "", "bang" ],
									"parameter_enable" : 0,
									"patching_rect" : [ 150.0, 90.0, 55.0, 22.0 ]
								}

							}
, 							{
								"box" : 								{
									"id" : "obj-45",
									"maxclass" : "comment",
									"numinlets" : 1,
									"numoutlets" : 0,
									"patching_rect" : [ 85.0, 25.0, 30.0, 20.0 ],
									"text" : "f_c"
								}

							}
, 							{
								"box" : 								{
									"format" : 6,
									"id" : "obj-46",
									"maxclass" : "flonum",
									"numinlets" : 1,
									"numoutlets" : 2,
									"outlettype" : [ "", "bang" ],
									"parameter_enable" : 0,
									"patching_rect" : [ 85.0, 90.0, 55.0, 22.0 ]
								}

							}
, 							{
								"box" : 								{
									"id" : "obj-44",
									"maxclass" : "comment",
									"numinlets" : 1,
									"numoutlets" : 0,
									"patching_rect" : [ 25.0, 25.0, 32.0, 20.0 ],
									"text" : "gain"
								}

							}
, 							{
								"box" : 								{
									"format" : 6,
									"id" : "obj-42",
									"maxclass" : "flonum",
									"numinlets" : 1,
									"numoutlets" : 2,
									"outlettype" : [ "", "bang" ],
									"parameter_enable" : 0,
									"patching_rect" : [ 25.0, 90.0, 55.0, 22.0 ]
								}

							}
, 							{
								"box" : 								{
									"id" : "obj-24",
									"maxclass" : "newobj",
									"numinlets" : 2,
									"numoutlets" : 1,
									"outlettype" : [ "float" ],
									"patching_rect" : [ 145.0, 470.0, 30.0, 22.0 ],
									"text" : "!- 1."
								}

							}
 ],
						"lines" : [ 							{
								"patchline" : 								{
									"destination" : [ "obj-46", 0 ],
									"source" : [ "obj-1", 0 ]
								}

							}
, 							{
								"patchline" : 								{
									"destination" : [ "obj-51", 1 ],
									"source" : [ "obj-1", 1 ]
								}

							}
, 							{
								"patchline" : 								{
									"destination" : [ "obj-98", 1 ],
									"source" : [ "obj-100", 1 ]
								}

							}
, 							{
								"patchline" : 								{
									"destination" : [ "obj-98", 0 ],
									"source" : [ "obj-100", 0 ]
								}

							}
, 							{
								"patchline" : 								{
									"destination" : [ "obj-9", 0 ],
									"source" : [ "obj-12", 0 ]
								}

							}
, 							{
								"patchline" : 								{
									"destination" : [ "obj-68", 0 ],
									"source" : [ "obj-16", 0 ]
								}

							}
, 							{
								"patchline" : 								{
									"destination" : [ "obj-48", 0 ],
									"source" : [ "obj-18", 0 ]
								}

							}
, 							{
								"patchline" : 								{
									"destination" : [ "obj-61", 0 ],
									"source" : [ "obj-19", 0 ]
								}

							}
, 							{
								"patchline" : 								{
									"destination" : [ "obj-42", 0 ],
									"hidden" : 1,
									"source" : [ "obj-2", 0 ]
								}

							}
, 							{
								"patchline" : 								{
									"destination" : [ "obj-95", 0 ],
									"source" : [ "obj-24", 0 ]
								}

							}
, 							{
								"patchline" : 								{
									"destination" : [ "obj-58", 0 ],
									"source" : [ "obj-27", 0 ]
								}

							}
, 							{
								"patchline" : 								{
									"destination" : [ "obj-90", 0 ],
									"midpoints" : [ 34.5, 525.5, 154.5, 525.5 ],
									"source" : [ "obj-42", 0 ]
								}

							}
, 							{
								"patchline" : 								{
									"destination" : [ "obj-19", 1 ],
									"order" : 0,
									"source" : [ "obj-46", 0 ]
								}

							}
, 							{
								"patchline" : 								{
									"destination" : [ "obj-51", 0 ],
									"order" : 1,
									"source" : [ "obj-46", 0 ]
								}

							}
, 							{
								"patchline" : 								{
									"destination" : [ "obj-1", 0 ],
									"source" : [ "obj-48", 0 ]
								}

							}
, 							{
								"patchline" : 								{
									"destination" : [ "obj-52", 0 ],
									"source" : [ "obj-51", 0 ]
								}

							}
, 							{
								"patchline" : 								{
									"destination" : [ "obj-12", 0 ],
									"order" : 1,
									"source" : [ "obj-52", 0 ]
								}

							}
, 							{
								"patchline" : 								{
									"destination" : [ "obj-23", 0 ],
									"order" : 0,
									"source" : [ "obj-52", 0 ]
								}

							}
, 							{
								"patchline" : 								{
									"destination" : [ "obj-27", 0 ],
									"order" : 2,
									"source" : [ "obj-52", 0 ]
								}

							}
, 							{
								"patchline" : 								{
									"destination" : [ "obj-19", 0 ],
									"order" : 0,
									"source" : [ "obj-58", 0 ]
								}

							}
, 							{
								"patchline" : 								{
									"destination" : [ "obj-24", 0 ],
									"order" : 3,
									"source" : [ "obj-58", 0 ]
								}

							}
, 							{
								"patchline" : 								{
									"destination" : [ "obj-62", 1 ],
									"order" : 1,
									"source" : [ "obj-58", 0 ]
								}

							}
, 							{
								"patchline" : 								{
									"destination" : [ "obj-62", 0 ],
									"order" : 2,
									"source" : [ "obj-58", 0 ]
								}

							}
, 							{
								"patchline" : 								{
									"destination" : [ "obj-67", 0 ],
									"order" : 4,
									"source" : [ "obj-58", 0 ]
								}

							}
, 							{
								"patchline" : 								{
									"destination" : [ "obj-68", 3 ],
									"source" : [ "obj-61", 0 ]
								}

							}
, 							{
								"patchline" : 								{
									"destination" : [ "obj-65", 0 ],
									"source" : [ "obj-62", 0 ]
								}

							}
, 							{
								"patchline" : 								{
									"destination" : [ "obj-68", 4 ],
									"source" : [ "obj-65", 0 ]
								}

							}
, 							{
								"patchline" : 								{
									"destination" : [ "obj-98", 0 ],
									"midpoints" : [ 94.5, 632.0, 154.5, 632.0 ],
									"source" : [ "obj-66", 0 ]
								}

							}
, 							{
								"patchline" : 								{
									"destination" : [ "obj-66", 0 ],
									"source" : [ "obj-67", 0 ]
								}

							}
, 							{
								"patchline" : 								{
									"destination" : [ "obj-13", 0 ],
									"source" : [ "obj-68", 0 ]
								}

							}
, 							{
								"patchline" : 								{
									"destination" : [ "obj-42", 0 ],
									"source" : [ "obj-86", 0 ]
								}

							}
, 							{
								"patchline" : 								{
									"destination" : [ "obj-46", 0 ],
									"source" : [ "obj-87", 0 ]
								}

							}
, 							{
								"patchline" : 								{
									"destination" : [ "obj-19", 2 ],
									"order" : 0,
									"source" : [ "obj-9", 1 ]
								}

							}
, 							{
								"patchline" : 								{
									"destination" : [ "obj-27", 1 ],
									"order" : 1,
									"source" : [ "obj-9", 1 ]
								}

							}
, 							{
								"patchline" : 								{
									"destination" : [ "obj-92", 0 ],
									"source" : [ "obj-90", 0 ]
								}

							}
, 							{
								"patchline" : 								{
									"destination" : [ "obj-100", 0 ],
									"source" : [ "obj-92", 0 ]
								}

							}
, 							{
								"patchline" : 								{
									"destination" : [ "obj-90", 1 ],
									"source" : [ "obj-95", 1 ]
								}

							}
, 							{
								"patchline" : 								{
									"destination" : [ "obj-90", 0 ],
									"source" : [ "obj-95", 0 ]
								}

							}
, 							{
								"patchline" : 								{
									"destination" : [ "obj-16", 0 ],
									"order" : 1,
									"source" : [ "obj-98", 0 ]
								}

							}
, 							{
								"patchline" : 								{
									"destination" : [ "obj-68", 2 ],
									"order" : 0,
									"source" : [ "obj-98", 0 ]
								}

							}
 ]
					}
,
					"patching_rect" : [ 682.0, 127.0, 190.0, 22.0 ],
					"saved_object_attributes" : 					{
						"description" : "",
						"digest" : "",
						"globalpatchername" : "",
						"tags" : ""
					}
,
					"text" : "p convert-to-biquad-coefficients"
				}

			}
, 			{
				"box" : 				{
					"audioframesize" : 1024,
					"domainlabel" : "Frequency (Hz)",
					"id" : "obj-8",
					"margins" : [ 8.0, 8.0, 20.0, 50.0 ],
					"maxclass" : "plot~",
					"numinlets" : 2,
					"numoutlets" : 1,
					"numplots" : 2,
					"numpoints" : 512,
					"outlettype" : [ "" ],
					"patching_rect" : [ 570.0, 223.0, 497.0, 206.0 ],
					"rangelabel" : "Magnitude (dB)",
					"subplots" : [ 						{
							"color" : [ 0.400000005960464, 0.400000005960464, 0.75, 1.0 ],
							"thickness" : 1.0,
							"point_style" : "none",
							"line_style" : "linear",
							"number_style" : "none",
							"filter" : "atodb",
							"domain_start" : 0.0,
							"domain_end" : 22050.0,
							"domain_style" : "log",
							"domain_markers" : [ 0.0, 10.0, 20.0, 30.0, 40.0, 50.0, 60.0, 70.0, 80.0, 90.0, 100.0, 110.0, 120.0, 130.0, 140.0, 150.0, 160.0, 170.0, 180.0, 190.0, 200.0, 300.0, 400.0, 500.0, 600.0, 700.0, 800.0, 900.0, 1000.0, 1100.0, 1200.0, 1300.0, 1400.0, 1500.0, 1600.0, 1700.0, 1800.0, 1900.0, 2000.0, 3000.0, 4000.0, 5000.0, 6000.0, 7000.0, 8000.0, 9000.0, 10000.0, 11000.0, 12000.0, 13000.0, 14000.0, 15000.0, 16000.0, 17000.0, 18000.0, 19000.0, 20000.0, 22050.0 ],
							"domain_labels" : [ 20.0, "20", 200.0, "200", 2000.0, "2K", 20000.0, "20K" ],
							"range_start" : -48.0,
							"range_end" : 0.0,
							"range_style" : "linear",
							"range_markers" : [ -132.0, -120.0, -108.0, -96.0, -84.0, -72.0, -60.0, -48.0, -36.0, -24.0, -12.0, 0.0 ],
							"range_labels" : [ 0.0, "0", -12.0, "-12", -24.0, "-24", -36.0, "-36", -48.0, "-48", -60.0, "-60", -72.0, "-72", -84.0, "-84", -96.0, "-96", -108.0, "-108", -120.0, "-120", -132.0, "-132" ],
							"origin_x" : 0.0,
							"origin_y" : 0.0
						}
, 						{
							"color" : [ 0.699999988079071, 0.280000001192093, 0.389999985694885, 1.0 ],
							"thickness" : 1.0,
							"point_style" : "none",
							"line_style" : "linear",
							"number_style" : "none",
							"filter" : "atodb",
							"domain_start" : 0.0,
							"domain_end" : 22050.0,
							"domain_style" : "log",
							"domain_markers" : [  ],
							"domain_labels" : [  ],
							"range_start" : -132.0,
							"range_end" : 0.0,
							"range_style" : "linear",
							"range_markers" : [  ],
							"range_labels" : [  ],
							"origin_x" : 0.0,
							"origin_y" : 0.0
						}
 ]
				}

			}
, 			{
				"box" : 				{
					"fontname" : "Arial",
					"fontsize" : 13.0,
					"id" : "obj-77",
					"maxclass" : "newobj",
					"numinlets" : 1,
					"numoutlets" : 6,
					"outlettype" : [ "", "", "", "", "", "" ],
					"patching_rect" : [ 682.0, 168.0, 95.0, 23.0 ],
					"text" : "filterdetail"
				}

			}
, 			{
				"box" : 				{
					"id" : "obj-47",
					"maxclass" : "comment",
					"numinlets" : 1,
					"numoutlets" : 0,
					"patching_rect" : [ 853.0, 39.0, 30.0, 20.0 ],
					"text" : "q"
				}

			}
, 			{
				"box" : 				{
					"format" : 6,
					"id" : "obj-48",
					"maxclass" : "flonum",
					"numinlets" : 1,
					"numoutlets" : 2,
					"outlettype" : [ "", "bang" ],
					"parameter_enable" : 0,
					"patching_rect" : [ 853.0, 62.0, 55.0, 22.0 ]
				}

			}
, 			{
				"box" : 				{
					"id" : "obj-45",
					"maxclass" : "comment",
					"numinlets" : 1,
					"numoutlets" : 0,
					"patching_rect" : [ 767.5, 39.0, 73.0, 20.0 ],
					"text" : "frequency"
				}

			}
, 			{
				"box" : 				{
					"format" : 6,
					"id" : "obj-46",
					"maxclass" : "flonum",
					"numinlets" : 1,
					"numoutlets" : 2,
					"outlettype" : [ "", "bang" ],
					"parameter_enable" : 0,
					"patching_rect" : [ 767.5, 62.0, 55.0, 22.0 ]
				}

			}
, 			{
				"box" : 				{
					"id" : "obj-44",
					"maxclass" : "comment",
					"numinlets" : 1,
					"numoutlets" : 0,
					"patching_rect" : [ 682.0, 39.0, 34.0, 20.0 ],
					"text" : "gain"
				}

			}
, 			{
				"box" : 				{
					"format" : 6,
					"id" : "obj-42",
					"maxclass" : "flonum",
					"numinlets" : 1,
					"numoutlets" : 2,
					"outlettype" : [ "", "bang" ],
					"parameter_enable" : 0,
					"patching_rect" : [ 682.0, 62.0, 55.0, 22.0 ]
				}

			}
 ],
		"lines" : [ 			{
				"patchline" : 				{
					"destination" : [ "obj-4", 0 ],
					"source" : [ "obj-1", 0 ]
				}

			}
, 			{
				"patchline" : 				{
					"destination" : [ "obj-1", 0 ],
					"order" : 0,
					"source" : [ "obj-10", 0 ]
				}

			}
, 			{
				"patchline" : 				{
					"destination" : [ "obj-11", 0 ],
					"order" : 2,
					"source" : [ "obj-10", 0 ]
				}

			}
, 			{
				"patchline" : 				{
					"destination" : [ "obj-2", 0 ],
					"order" : 1,
					"source" : [ "obj-10", 0 ]
				}

			}
, 			{
				"patchline" : 				{
					"destination" : [ "obj-46", 0 ],
					"source" : [ "obj-12", 0 ]
				}

			}
, 			{
				"patchline" : 				{
					"destination" : [ "obj-12", 0 ],
					"source" : [ "obj-15", 0 ]
				}

			}
, 			{
				"patchline" : 				{
					"destination" : [ "obj-7", 0 ],
					"source" : [ "obj-2", 0 ]
				}

			}
, 			{
				"patchline" : 				{
					"destination" : [ "obj-9", 0 ],
					"source" : [ "obj-4", 0 ]
				}

			}
, 			{
				"patchline" : 				{
					"destination" : [ "obj-4", 1 ],
					"order" : 1,
					"source" : [ "obj-42", 0 ]
				}

			}
, 			{
				"patchline" : 				{
					"destination" : [ "obj-43", 0 ],
					"order" : 0,
					"source" : [ "obj-42", 0 ]
				}

			}
, 			{
				"patchline" : 				{
					"destination" : [ "obj-5", 1 ],
					"order" : 1,
					"source" : [ "obj-43", 0 ]
				}

			}
, 			{
				"patchline" : 				{
					"destination" : [ "obj-77", 0 ],
					"order" : 0,
					"source" : [ "obj-43", 0 ]
				}

			}
, 			{
				"patchline" : 				{
					"destination" : [ "obj-4", 2 ],
					"order" : 1,
					"source" : [ "obj-46", 0 ]
				}

			}
, 			{
				"patchline" : 				{
					"destination" : [ "obj-43", 1 ],
					"order" : 0,
					"source" : [ "obj-46", 0 ]
				}

			}
, 			{
				"patchline" : 				{
					"destination" : [ "obj-4", 3 ],
					"order" : 1,
					"source" : [ "obj-48", 0 ]
				}

			}
, 			{
				"patchline" : 				{
					"destination" : [ "obj-43", 2 ],
					"order" : 0,
					"source" : [ "obj-48", 0 ]
				}

			}
, 			{
				"patchline" : 				{
					"destination" : [ "obj-48", 0 ],
					"source" : [ "obj-6", 0 ]
				}

			}
, 			{
				"patchline" : 				{
					"destination" : [ "obj-15", 0 ],
					"source" : [ "obj-7", 0 ]
				}

			}
, 			{
				"patchline" : 				{
					"destination" : [ "obj-8", 0 ],
					"source" : [ "obj-77", 0 ]
				}

			}
, 			{
				"patchline" : 				{
					"destination" : [ "obj-3", 3 ],
					"order" : 0,
					"source" : [ "obj-9", 0 ]
				}

			}
, 			{
				"patchline" : 				{
					"destination" : [ "obj-3", 2 ],
					"order" : 1,
					"source" : [ "obj-9", 0 ]
				}

			}
, 			{
				"patchline" : 				{
					"destination" : [ "obj-3", 1 ],
					"order" : 2,
					"source" : [ "obj-9", 0 ]
				}

			}
, 			{
				"patchline" : 				{
					"destination" : [ "obj-3", 0 ],
					"order" : 3,
					"source" : [ "obj-9", 0 ]
				}

			}
 ],
		"dependency_cache" : [  ],
		"autosave" : 0
	}

}
